<svg version="1.0" xmlns="http://www.w3.org/2000/svg"
 width="205.000000pt" height="433.000000pt" viewBox="0 0 205.000000 433.000000"
 preserveAspectRatio="xMidYMid meet">

<g transform="translate(0.000000,433.000000) scale(0.100000,-0.100000)"
fill="#000000" stroke="none">
<path d="M955 3150 c-3 -5 0 -13 8 -16 23 -8 82 0 82 11 0 14 -82 19 -90 5z"/>
<path d="M965 3050 c-3 -5 0 -13 8 -16 23 -8 127 0 130 11 3 14 -129 19 -138
5z"/>
<path d="M977 2954 c-17 -17 -3 -24 49 -24 40 0 55 4 52 13 -5 13 -89 22 -101
11z"/>
<path d="M915 2890 c3 -5 28 -10 56 -10 27 0 49 5 49 10 0 6 -25 10 -56 10
-34 0 -53 -4 -49 -10z"/>
<path d="M590 2710 l0 -60 33 0 c38 0 62 16 72 47 9 31 -34 73 -75 73 l-30 0
0 -60z m78 6 c4 -18 -21 -46 -40 -46 -4 0 -8 16 -8 36 0 31 3 35 22 32 13 -2
24 -11 26 -22z"/>
<path d="M722 2728 c-16 -16 -15 -53 2 -68 17 -13 63 -10 57 5 -2 6 -12 9 -23
7 -10 -2 -18 2 -18 7 0 6 14 11 30 11 18 0 30 5 30 13 0 19 -21 37 -45 37 -12
0 -26 -5 -33 -12z m48 -18 c0 -5 -7 -10 -15 -10 -8 0 -15 5 -15 10 0 6 7 10
15 10 8 0 15 -4 15 -10z"/>
<path d="M810 2734 c0 -4 5 -24 12 -45 16 -55 42 -52 61 6 13 37 13 45 2 45
-7 0 -18 -12 -23 -27 l-10 -28 -11 28 c-9 24 -31 38 -31 21z"/>
<path d="M916 2718 c-26 -37 -2 -68 52 -68 31 0 32 1 32 43 0 42 -1 43 -35 44
-25 1 -39 -5 -49 -19z m51 -14 c8 -21 -13 -42 -28 -27 -13 13 -5 43 11 43 6 0
13 -7 17 -16z"/>
<path d="M1030 2726 c-6 -8 -10 -25 -8 -38 2 -18 11 -24 38 -28 22 -3 30 -8
23 -13 -7 -4 -24 -5 -39 -1 -20 5 -26 3 -22 -7 6 -18 55 -24 74 -8 9 7 14 30
14 60 0 49 0 49 -34 49 -18 0 -39 -7 -46 -14z m47 -22 c9 -23 -11 -38 -26 -20
-13 16 -7 36 10 36 5 0 12 -7 16 -16z"/>
<path d="M1130 2695 c0 -33 4 -45 15 -45 10 0 15 10 15 29 0 17 5 33 10 36 18
11 10 25 -15 25 -23 0 -25 -4 -25 -45z"/>
<path d="M1202 2728 c-15 -15 -15 -51 0 -66 7 -7 27 -12 45 -12 32 0 33 1 33
43 0 43 -1 44 -33 45 -19 1 -39 -4 -45 -10z m55 -24 c8 -21 -13 -42 -28 -27
-13 13 -5 43 11 43 6 0 13 -7 17 -16z"/>
<path d="M1300 2694 c0 -54 27 -63 32 -11 2 17 8 32 13 32 6 0 11 -15 13 -32
5 -47 32 -44 32 3 0 45 24 42 28 -4 5 -48 24 -38 20 11 l-3 42 -67 1 -68 2 0
-44z"/>
<path d="M201 2334 c0 -11 3 -14 6 -6 3 7 2 16 -1 19 -3 4 -6 -2 -5 -13z"/>
<path d="M752 2310 c0 -19 2 -27 5 -17 2 9 2 25 0 35 -3 9 -5 1 -5 -18z"/>
<path d="M444 2300 c0 -11 4 -20 8 -20 4 0 8 9 8 20 0 11 -4 20 -8 20 -4 0 -8
-9 -8 -20z"/>
<path d="M604 2300 c0 -11 4 -20 8 -20 4 0 8 9 8 20 0 11 -4 20 -8 20 -4 0 -8
-9 -8 -20z"/>
<path d="M652 2300 c0 -14 2 -19 5 -12 2 6 2 18 0 25 -3 6 -5 1 -5 -13z"/>
<path d="M717 2300 c3 -11 7 -20 9 -20 2 0 4 9 4 20 0 11 -4 20 -9 20 -5 0 -7
-9 -4 -20z"/>
<path d="M892 2300 c0 -14 2 -19 5 -12 2 6 2 18 0 25 -3 6 -5 1 -5 -13z"/>
<path d="M990 2300 c0 -11 2 -20 4 -20 2 0 6 9 9 20 3 11 1 20 -4 20 -5 0 -9
-9 -9 -20z"/>
<path d="M491 2294 c0 -11 3 -14 6 -6 3 7 2 16 -1 19 -3 4 -6 -2 -5 -13z"/>
<path d="M212 1698 c-16 -16 -16 -160 0 -176 17 -17 1589 -17 1606 0 16 16 16
160 0 176 -17 17 -1589 17 -1606 0z m739 -90 c1 -16 3 -18 6 -6 3 12 15 17 41
17 20 0 44 1 52 2 41 5 60 -2 60 -21 0 -21 -19 -28 -21 -7 0 10 -2 10 -6 0 -2
-7 -11 -13 -19 -13 -8 0 -14 -4 -14 -10 0 -5 -9 -10 -19 -10 -11 0 -23 5 -26
10 -3 6 -22 10 -41 10 -30 0 -34 3 -34 25 0 31 20 33 21 3z"/>
<path d="M1380 1366 c0 -2 7 -7 16 -10 8 -3 12 -2 9 4 -6 10 -25 14 -25 6z"/>
<path d="M630 1336 c0 -31 6 -34 13 -6 3 11 1 23 -4 26 -5 3 -9 -6 -9 -20z"/>
<path d="M662 1335 c0 -16 2 -22 5 -12 2 9 2 23 0 30 -3 6 -5 -1 -5 -18z"/>
<path d="M982 1335 c0 -16 2 -22 5 -12 2 9 2 23 0 30 -3 6 -5 -1 -5 -18z"/>
<path d="M1314 1336 c1 -26 32 -30 32 -4 0 18 -1 18 -12 3 -11 -15 -13 -15
-17 2 -4 16 -4 16 -3 -1z"/>
<path d="M704 1330 c0 -11 7 -18 16 -17 20 1 20 33 0 34 -9 1 -16 -6 -16 -17z"/>
<path d="M854 1330 c0 -13 4 -16 10 -10 7 7 7 13 0 20 -6 6 -10 3 -10 -10z"/>
<path d="M910 1339 c0 -5 5 -7 10 -4 6 3 10 8 10 11 0 2 -4 4 -10 4 -5 0 -10
-5 -10 -11z"/>
<path d="M942 1330 c0 -14 2 -19 5 -12 2 6 2 18 0 25 -3 6 -5 1 -5 -13z"/>
<path d="M1042 1330 c0 -14 2 -19 5 -12 2 6 2 18 0 25 -3 6 -5 1 -5 -13z"/>
<path d="M1066 1343 c6 -5 14 -15 17 -23 4 -12 6 -11 6 3 1 20 21 24 21 4 0
-8 6 -14 13 -14 7 0 13 7 13 16 0 12 -12 17 -41 19 -22 1 -35 -1 -29 -5z"/>
<path d="M1152 1330 c0 -14 2 -19 5 -12 2 6 2 18 0 25 -3 6 -5 1 -5 -13z"/>
<path d="M1184 1339 c-3 -6 -2 -15 3 -20 5 -5 9 -1 9 11 0 23 -2 24 -12 9z"/>
<path d="M1224 1339 c-3 -6 -2 -15 3 -20 5 -5 9 -1 9 11 0 23 -2 24 -12 9z"/>
<path d="M1271 1328 c0 -16 2 -18 6 -8 3 8 11 18 17 22 7 5 4 8 -6 8 -12 0
-18 -7 -17 -22z"/>
<path d="M1362 1330 c0 -14 2 -19 5 -12 2 6 2 18 0 25 -3 6 -5 1 -5 -13z"/>
<path d="M1018 1249 c-2 -7 -17 -12 -33 -13 -46 -2 -39 -30 8 -33 35 -2 37 0
37 27 0 31 -5 39 -12 19z m-38 -29 c0 -5 -4 -10 -10 -10 -5 0 -10 5 -10 10 0
6 5 10 10 10 6 0 10 -4 10 -10z m40 0 c0 -5 -4 -10 -10 -10 -5 0 -10 5 -10 10
0 6 5 10 10 10 6 0 10 -4 10 -10z"/>
<path d="M1432 1240 c0 -14 2 -19 5 -12 2 6 2 18 0 25 -3 6 -5 1 -5 -13z"/>
<path d="M608 1243 c7 -3 16 -2 19 1 4 3 -2 6 -13 5 -11 0 -14 -3 -6 -6z"/>
<path d="M1108 1243 c-17 -4 -21 -43 -5 -43 5 0 7 7 3 15 -3 8 -1 15 4 15 6 0
10 -7 10 -15 0 -8 4 -15 8 -15 9 0 10 37 1 43 -2 2 -12 2 -21 0z"/>
<path d="M635 1230 c-8 -14 3 -30 21 -30 8 0 14 9 14 20 0 21 -24 28 -35 10z
m25 -10 c0 -5 -4 -10 -10 -10 -5 0 -10 5 -10 10 0 6 5 10 10 10 6 0 10 -4 10
-10z"/>
<path d="M730 1230 c13 -9 13 -11 0 -20 -13 -8 -12 -10 3 -10 10 0 17 8 17 20
0 12 -7 20 -17 20 -15 0 -16 -2 -3 -10z"/>
<path d="M783 1220 c1 -11 5 -20 9 -20 3 0 6 9 5 20 -1 11 -5 20 -9 20 -3 0
-6 -9 -5 -20z"/>
<path d="M815 1230 c-8 -13 3 -30 18 -30 7 0 6 4 -3 10 -13 9 -13 11 0 20 9 6
10 10 3 10 -6 0 -15 -4 -18 -10z"/>
<path d="M853 1226 c1 -11 9 -21 17 -23 10 -3 11 -2 4 4 -6 4 -14 15 -17 23
-5 11 -6 9 -4 -4z"/>
<path d="M1045 1230 c-8 -14 3 -30 21 -30 8 0 14 9 14 20 0 21 -24 28 -35 10z
m25 -10 c0 -5 -4 -10 -10 -10 -5 0 -10 5 -10 10 0 6 5 10 10 10 6 0 10 -4 10
-10z"/>
<path d="M1175 1230 c-8 -13 3 -30 18 -30 7 0 6 4 -3 10 -13 9 -13 11 0 20 9
6 10 10 3 10 -6 0 -15 -4 -18 -10z"/>
<path d="M1240 1230 c13 -9 13 -11 0 -20 -13 -8 -12 -10 3 -10 10 0 17 8 17
20 0 12 -7 20 -17 20 -15 0 -16 -2 -3 -10z"/>
<path d="M1276 1232 c-3 -5 -4 -17 -2 -28 4 -29 31 -23 34 9 2 19 -1 27 -12
27 -8 0 -17 -4 -20 -8z m24 -12 c0 -5 -4 -10 -10 -10 -5 0 -10 5 -10 10 0 6 5
10 10 10 6 0 10 -4 10 -10z"/>
<path d="M1330 1231 c13 -10 13 -12 0 -22 -13 -9 -13 -10 0 -6 8 2 15 10 15
17 0 7 -7 15 -15 17 -13 4 -13 3 0 -6z"/>
<path d="M1361 1216 c0 -20 1 -20 8 -2 7 18 8 18 14 3 9 -23 37 -21 37 2 0 15
-7 19 -30 19 -24 -1 -30 -5 -29 -22z m49 4 c0 -5 -4 -10 -10 -10 -5 0 -10 5
-10 10 0 6 5 10 10 10 6 0 10 -4 10 -10z"/>
</g>
</svg>
